HIERARCHY
ROOT Hips
{
	OFFSET -3.958830 18.904000 13.208200
	CHANNELS 6 Xposition Yposition Zposition Zrotation Yrotation Xrotation 
	JOINT LHipJoint
	{
		OFFSET 0.000000 0.000000 0.000000
		CHANNELS 3 Zrotation Yrotation Xrotation
		JOINT LeftUpLeg
		{
			OFFSET 1.800000 -1.400000 0.085000
			CHANNELS 3 Zrotation Yrotation Xrotation
			JOINT LeftLeg
			{
				OFFSET 2.215000 -6.000000 0.000000
				CHANNELS 3 Zrotation Yrotation Xrotation
				JOINT LeftFoot
				{
					OFFSET 2.500000 -6.900000 0.000000
					CHANNELS 3 Zrotation Yrotation Xrotation
					JOINT LeftToeBase
					{
						OFFSET 0.200000 -0.500000 1.950000
						CHANNELS 3 Zrotation Yrotation Xrotation
						End Site
						{
							OFFSET 0.000000 0.000000 0.000000
						}
					}
				}
			}
		}
	}
	JOINT RHipJoint
	{
		OFFSET 0.000000 0.000000 0.000000
		CHANNELS 3 Zrotation Yrotation Xrotation
		JOINT RightUpLeg
		{
			OFFSET -1.800000 -1.400000 0.085000
			CHANNELS 3 Zrotation Yrotation Xrotation
			JOINT RightLeg
			{
				OFFSET -2.215000 -6.000000 0.000000
				CHANNELS 3 Zrotation Yrotation Xrotation
				JOINT RightFoot
				{
					OFFSET -2.500000 -6.900000 0.000000
					CHANNELS 3 Zrotation Yrotation Xrotation
					JOINT RightToeBase
					{
						OFFSET -0.200000 -0.500000 1.950000
						CHANNELS 3 Zrotation Yrotation Xrotation
						End Site
						{
							OFFSET 0.000000 0.000000 0.000000
						}
					}
				}
			}
		}
	}
	JOINT LowerBack
	{
		OFFSET 0.000000 0.000000 0.000000
		CHANNELS 3 Zrotation Yrotation Xrotation
		JOINT Spine
		{
			OFFSET -0.087000 1.940000 -0.288900
			CHANNELS 3 Zrotation Yrotation Xrotation
			JOINT Spine1
			{
				OFFSET 0.000000 1.950000 0.060000
				CHANNELS 3 Zrotation Yrotation Xrotation
				JOINT Neck
				{
					OFFSET 0.000000 0.000000 0.000000
					CHANNELS 3 Zrotation Yrotation Xrotation
					JOINT Neck1
					{
						OFFSET 0.000000 1.600000 0.340000
						CHANNELS 3 Zrotation Yrotation Xrotation
						JOINT Head
						{
							OFFSET 0.000000 1.667000 -0.240000
							CHANNELS 3 Zrotation Yrotation Xrotation
							End Site
							{
								OFFSET 0.000000 0.000000 0.000000
							}
						}
					}
				}
				JOINT LeftShoulder
				{
					OFFSET 0.000000 0.000000 0.000000
					CHANNELS 3 Zrotation Yrotation Xrotation
					JOINT LeftArm
					{
						OFFSET 2.700000 1.550000 -0.730000
						CHANNELS 3 Zrotation Yrotation Xrotation
						JOINT LeftForeArm
						{
							OFFSET 5.450000 0.000000 0.000000
							CHANNELS 3 Zrotation Yrotation Xrotation
							JOINT LeftHand
							{
								OFFSET 3.450000 0.000000 0.000000
								CHANNELS 3 Zrotation Yrotation Xrotation
								JOINT LeftHandIndex1
								{
									OFFSET 0.750000 0.000000 0.000000
									CHANNELS 3 Zrotation Yrotation Xrotation
									End Site
									{
										OFFSET 0.000000 0.000000 0.000000
									}
								}
							}
						}
					}
				}
				JOINT RightShoulder
				{
					OFFSET 0.000000 0.000000 0.000000
					CHANNELS 3 Zrotation Yrotation Xrotation
					JOINT RightArm
					{
						OFFSET -2.700000 1.550000 -0.730000
						CHANNELS 3 Zrotation Yrotation Xrotation
						JOINT RightForeArm
						{
							OFFSET -5.450000 0.000000 0.000000
							CHANNELS 3 Zrotation Yrotation Xrotation
							JOINT RightHand
							{
								OFFSET -3.450000 0.000000 0.000000
								CHANNELS 3 Zrotation Yrotation Xrotation
								JOINT RightHandIndex1
								{
									OFFSET -0.750000 0.000000 0.000000
									CHANNELS 3 Zrotation Yrotation Xrotation
									End Site
									{
										OFFSET 0.000000 0.000000 0.000000
									}
								}
							}
						}
					}
				}
			}
		}
	}
}
MOTION
Frames: 12
Frame Time: 0.016667
3.017070 16.208530 -2.831110 -1.451337 25.601953 -3.436556 -15.160606 11.887218 3.424755 -3.221709 -7.667185 -26.575099 1.386830 6.163044 39.904893 0.284418 5.703389 2.280840 0.423690 0.381180 0.400150 18.458505 -9.278500 4.788380 -26.830356 5.339558 -33.621017 34.378620 -24.466291 42.526367 -1.683266 -9.840883 0.750450 0.132020 -0.413120 0.024530 -4.324966 -1.415231 -9.170552 17.807545 -5.990017 37.640068 -12.215243 1.220195 3.902005 5.115054 -0.294791 -14.045773 -6.074325 -4.993358 54.156071 4.072980 -10.391960 -13.720540 -16.231330 -17.811031 6.735933 -21.233786 0.265106 -6.026002 -73.423667 -38.620350 22.804332 -3.161235 3.438414 0.412190 -0.391170 0.387680 -0.021400 5.553142 20.729811 8.854239 8.040090 4.640209 -5.179523 85.499792 41.546296 28.548696 2.580816 -1.783782 0.133600 0.033970 -0.177350 -0.085550 
3.026790 16.225770 -2.832830 -1.086666 25.153853 -3.127907 -15.149188 11.915550 3.464764 -3.643736 -7.704802 -26.399961 1.499830 5.979649 39.343275 0.269107 5.579567 2.329231 0.411800 0.365830 0.397420 18.451603 -9.373909 4.713872 -26.069175 5.430319 -33.446056 32.927588 -23.657675 42.685952 -1.620965 -9.688394 0.793725 0.124180 -0.409100 0.024080 -4.337487 -1.335996 -9.151245 17.521990 -6.014016 37.648555 -12.871019 1.236678 3.262982 5.251295 0.117469 -13.959420 -5.236856 -5.256912 54.257542 3.772740 -10.328030 -13.134720 -18.256838 -18.423730 6.584926 -21.957089 0.006326 -6.183070 -64.738869 -36.774169 18.375979 -3.156756 3.399856 0.402850 -0.382170 0.378460 -0.025990 7.208908 21.083744 8.863992 8.802524 4.791517 -5.217230 82.768121 40.816825 26.763911 2.587403 -1.770369 0.131070 0.028360 -0.173580 -0.087840 
3.033420 16.259390 -2.832650 -0.889582 24.629921 -2.690150 -15.127354 11.964481 3.479080 -4.030696 -7.592027 -26.015401 1.536983 5.698125 37.991775 0.224254 5.320308 2.429985 0.397660 0.349000 0.389830 18.447029 -9.510139 4.635285 -24.822316 5.633505 -33.376783 31.199013 -22.664189 42.885187 -1.544287 -9.494425 0.854395 0.119660 -0.393230 0.024390 -4.374633 -1.198421 -9.108291 17.401338 -6.089650 37.650654 -13.717823 1.264844 2.365340 5.363850 0.685674 -13.566856 -3.910671 -5.771505 53.443552 3.628100 -10.120340 -12.711970 -21.411344 -18.781161 6.258194 -22.757258 -0.124847 -6.286499 -54.542739 -34.798730 14.067309 -3.150218 3.366685 0.387190 -0.363690 0.360080 -0.028430 9.972947 21.049413 8.693604 10.514056 4.952794 -5.336292 77.961430 40.409306 24.480620 2.594278 -1.746759 0.123920 0.025890 -0.167420 -0.089240 
3.035300 16.307290 -2.824040 -0.592472 24.131421 -2.064743 -15.103796 12.040502 3.479429 -4.291589 -7.370294 -25.464052 1.249007 5.463271 35.969276 0.172209 4.978362 2.567892 0.372840 0.319400 0.368060 18.437803 -9.660318 4.557899 -23.607638 5.777234 -33.360663 29.313087 -21.501610 42.875764 -1.442362 -9.243989 0.935665 0.110070 -0.362790 0.026070 -4.410631 -1.072422 -9.057544 17.146304 -6.025449 37.385517 -14.395507 1.307628 1.248691 5.372461 1.238010 -13.125862 -2.584462 -6.114588 52.648843 3.490690 -9.806540 -11.504690 -25.417282 -19.012303 5.953563 -23.684181 0.060957 -6.344401 -42.919108 -32.322518 9.827977 -3.134789 3.345951 0.358410 -0.333630 0.329430 -0.025320 13.786188 20.934652 8.464491 13.272358 5.089902 -5.533594 71.102924 39.866935 21.467111 2.597832 -1.719310 0.114680 0.020300 -0.158070 -0.085370 
3.033440 16.363470 -2.818070 -0.371028 23.780736 -1.263764 -15.084951 12.127914 3.475929 -4.448756 -7.110849 -24.973165 0.886199 5.205082 33.588796 0.115973 4.587964 2.725522 0.348210 0.293020 0.342330 18.424262 -9.792313 4.492296 -22.408775 5.874890 -33.509356 27.557083 -20.279959 42.541995 -1.329353 -8.940988 1.034881 0.101470 -0.327700 0.029130 -4.433825 -0.985185 -9.004365 17.019784 -5.909764 37.058562 -14.874495 1.397111 -0.117582 5.338732 1.770944 -12.565135 -1.326115 -6.521897 51.486201 3.460810 -9.558040 -10.388490 -29.800161 -18.972859 5.488028 -24.593505 -0.146190 -6.322159 -31.792440 -29.070064 6.206415 -3.121495 3.332743 0.323090 -0.300900 0.296080 -0.020090 18.052580 20.549204 8.243352 16.409973 4.758116 -5.832764 62.960830 39.389678 18.271162 2.588173 -1.692070 0.108410 0.014370 -0.148930 -0.076780 
3.032490 16.424240 -2.812650 -0.107335 23.349726 -0.253667 -15.075018 12.231766 3.476325 -4.674832 -6.828403 -24.517519 0.514272 4.924570 30.946540 0.054576 4.180965 2.896101 0.320660 0.263040 0.308940 18.407034 -9.873306 4.443229 -21.335774 5.939315 -33.888241 25.930516 -19.125747 42.116205 -1.213001 -8.635631 1.139907 0.095590 -0.283650 0.029900 -4.428586 -1.009680 -8.957489 16.729863 -5.856894 36.485739 -14.853922 1.217025 -1.539888 5.230468 1.768106 -11.829719 -1.120054 -6.387038 50.324688 3.059120 -9.212270 -9.059090 -34.146520 -18.428703 5.053480 -25.888218 -0.174171 -6.463741 -21.786640 -25.605543 3.399591 -3.128611 3.319164 0.282570 -0.262420 0.254210 -0.010640 22.483990 20.000981 7.775935 19.251599 4.789157 -6.123641 53.557199 38.622048 14.878895 2.560932 -1.660547 0.097150 0.014090 -0.136580 -0.066210 
3.042360 16.484150 -2.808390 -0.070679 22.850336 0.820403 -15.071803 12.347583 3.478907 -4.678210 -6.528720 -24.254837 -0.021918 4.730788 28.376867 0.001882 3.811497 3.048411 0.314710 0.260490 0.286980 18.385469 -9.922793 4.393635 -20.136133 5.997993 -34.291634 24.469070 -17.971164 41.407427 -1.107138 -8.277386 1.261997 0.100470 -0.252700 0.032150 -4.399213 -1.113747 -8.909077 16.525578 -5.923986 35.710473 -14.290974 0.854383 -2.855990 5.052867 1.361182 -10.918422 -1.654147 -6.050974 49.159117 2.890400 -8.979840 -8.669810 -37.761586 -17.348477 4.625078 -27.807958 -0.256480 -6.732830 -13.887925 -22.512415 1.520031 -3.155722 3.297418 0.251870 -0.239240 0.228690 0.004590 26.385742 19.151380 7.117429 22.045687 5.094325 -6.492602 43.551644 37.382128 11.421616 2.527526 -1.618227 0.095690 0.017160 -0.135080 -0.052630 
3.046910 16.546740 -2.809410 -0.335186 21.992192 1.796467 -15.080223 12.494719 3.465436 -4.348073 -6.149960 -24.140852 -0.584460 4.584018 25.812382 -0.061590 3.478919 3.179849 0.315510 0.264250 0.277990 18.355207 -9.919830 4.367021 -18.750770 6.208171 -34.900861 23.092253 -16.879242 40.780254 -1.014869 -7.911415 1.385684 0.111670 -0.234570 0.029100 -4.322759 -1.344316 -8.863774 16.188319 -5.979350 34.993760 -13.028150 0.435924 -3.969700 4.795333 0.567988 -9.921250 -2.935759 -5.261427 48.458836 2.596850 -8.484370 -8.759500 -40.457796 -15.933235 4.114362 -30.153588 -0.523648 -6.945497 -8.336160 -20.076462 0.384689 -3.202915 3.251957 0.239200 -0.227180 0.213510 0.012810 29.642396 18.146559 6.395404 24.672832 5.426340 -7.154500 33.383629 36.794364 8.445579 2.487916 -1.563810 0.087930 0.027440 -0.133030 -0.048670 
3.043940 16.596760 -2.807890 -0.695400 20.931639 2.634427 -15.091825 12.638847 3.460470 -3.731470 -5.784151 -24.161813 -1.415537 4.579610 23.551385 -0.104938 3.233813 3.272816 0.320120 0.272990 0.274240 18.321346 -9.931625 4.317560 -16.943965 6.475172 -35.441666 21.160937 -15.695923 40.538267 -0.928582 -7.520998 1.516213 0.120330 -0.227010 0.029050 -4.229589 -1.569916 -8.817154 15.596876 -5.909870 34.317933 -11.513546 0.105158 -4.816638 4.423710 -0.136060 -9.079932 -4.113971 -4.531307 47.933928 2.542140 -8.021130 -9.025560 -41.942729 -14.666878 3.631138 -32.187053 -0.785751 -7.119025 -5.529470 -19.010924 -0.124089 -3.237372 3.224898 0.233490 -0.223840 0.209530 0.018870 31.988735 17.175155 5.800698 27.261449 5.570690 -8.025845 25.236452 36.761322 6.188878 2.458922 -1.526122 0.086570 0.032060 -0.134270 -0.045020 
3.039140 16.637360 -2.808500 -1.010240 19.624246 3.184672 -15.104390 12.773979 3.448688 -3.087994 -5.410803 -23.964672 -2.241662 4.616601 21.626629 -0.130593 3.063166 3.336121 0.333860 0.291030 0.278300 18.287781 -9.958675 4.253088 -15.166060 6.662761 -35.592857 19.372187 -14.630895 40.302244 -0.857336 -7.162204 1.638570 0.131370 -0.228260 0.031660 -4.129483 -1.771552 -8.764375 14.798984 -5.772206 33.855118 -9.942861 -0.174632 -5.078848 4.013865 -0.856088 -8.366042 -5.448370 -3.993738 47.514066 2.250710 -7.770240 -9.292970 -42.100081 -13.551418 3.120475 -33.454646 -1.043093 -7.389068 -6.047472 -20.207858 -0.065628 -3.239419 3.237619 0.226440 -0.223530 0.210530 0.026190 33.144361 16.352618 5.344807 28.675833 5.620793 -8.713351 21.518057 37.667947 5.280549 2.443147 -1.528516 0.092840 0.031640 -0.141820 -0.041220 
3.029550 16.661110 -2.819400 -1.287962 18.442610 3.309342 -15.124117 12.916249 3.437606 -2.606651 -5.085735 -23.627676 -2.541170 4.591283 20.429979 -0.164335 2.970397 3.366648 0.344140 0.303230 0.297030 18.246241 -10.019206 4.151687 -13.409288 6.698021 -35.242422 17.477258 -13.624722 40.113941 -0.794682 -6.817384 1.755451 0.142980 -0.237070 0.032260 -4.016715 -1.949047 -8.699276 13.980656 -5.606577 33.773697 -8.655115 -0.317029 -4.547227 3.852634 -0.742886 -8.188849 -5.200467 -3.698414 47.248209 1.746670 -6.886910 -9.591840 -40.958405 -13.393607 2.962255 -33.435721 -1.333997 -7.480503 -9.850478 -22.794438 0.635295 -3.231772 3.259449 0.235330 -0.220320 0.217410 0.021890 32.539282 15.959030 5.203166 29.031922 5.436176 -9.014786 22.598629 39.488067 5.850255 2.431312 -1.543578 0.087010 0.034610 -0.145320 -0.054880 
3.019720 16.671330 -2.830350 -1.396862 17.116303 3.185952 -15.139641 13.027434 3.431263 -2.093845 -4.852948 -23.281935 -3.057246 4.720877 19.942309 -0.178943 2.985320 3.353487 0.358190 0.321030 0.313910 18.215831 -10.087533 4.036309 -11.837661 6.629992 -34.757843 15.492555 -12.697601 40.146811 -0.745528 -6.517757 1.856104 0.155590 -0.248310 0.031040 -3.920345 -2.083542 -8.631494 13.056974 -5.427581 33.860186 -7.522134 -0.454722 -3.148452 3.626421 -0.825835 -8.413518 -5.453451 -3.346816 46.990467 1.610950 -6.296690 -10.152640 -37.950250 -13.598701 2.972176 -32.711332 -1.785920 -7.317650 -17.009845 -26.650019 2.347849 -3.231424 3.289122 0.248300 -0.225110 0.228700 0.019290 30.200712 16.037364 5.361731 28.421415 5.298998 -8.782717 27.807320 41.263697 7.747101 2.444582 -1.564453 0.084050 0.040170 -0.149870 -0.064640 
